<svg width="32" height="33" viewBox="0 0 32 33" fill="none" xmlns="http://www.w3.org/2000/svg">
<g clip-path="url(#clip0_1_1712)">
<path d="M31.9286 22.2364C31.7066 21.4275 31.0283 20.8255 30.1987 20.7011V8.54122H31.2583C31.5509 8.54122 31.7881 8.304 31.7881 8.01142V2.7134C31.7881 2.42056 31.5509 2.18359 31.2583 2.18359H7.94703C7.65445 2.18359 7.41723 2.42056 7.41723 2.7134V8.01142C7.41723 8.304 7.65445 8.54122 7.94703 8.54122H9.00663V19.1373H8.47683C7.1619 19.1342 5.87387 19.5111 4.76822 20.2227V17.5479C4.76822 17.255 4.531 17.0181 4.23842 17.0181H0.529802C0.237221 17.0181 0 17.255 0 17.5479V29.7333C0 30.0259 0.237221 30.2631 0.529802 30.2631H4.23842C4.531 30.2631 4.76822 30.0259 4.76822 29.7333V27.0587C5.87413 27.7698 7.1619 28.1467 8.47683 28.1439H17.1761C17.7789 28.1429 18.3788 28.0637 18.9611 27.9085L30.4318 24.8357C31.5605 24.5281 32.2292 23.3671 31.9286 22.2364ZM8.47683 3.2432H30.7285V7.48161H8.47683V3.2432ZM10.0662 8.54122H29.1391V20.7921L22.9902 22.441C22.737 21.8372 22.2204 21.3837 21.5889 21.2107L14.4503 19.2961C14.0483 19.1903 13.6344 19.1367 13.2187 19.1373H10.0662V8.54122ZM3.70861 29.2035H1.0596V18.0777H3.70861V29.2035ZM30.1568 23.8121L18.6882 26.8848C18.1949 27.0165 17.6868 27.0835 17.1761 27.0843H8.47683C7.21545 27.0871 5.98743 26.6779 4.98009 25.9186L4.76822 25.7598V21.5214L4.98009 21.3623C5.98743 20.603 7.21545 20.1935 8.47683 20.1969H13.2187C13.5423 20.1966 13.8649 20.2385 14.1782 20.3213L21.3144 22.2343C21.7361 22.3505 22.0447 22.7119 22.0928 23.1467C22.0985 23.1685 22.1055 23.1899 22.1141 23.2109C22.1078 23.2337 22.1032 23.2567 22.1001 23.2802C22.1006 23.3664 22.089 23.4522 22.0652 23.535C21.9405 23.9968 21.5222 24.3178 21.0438 24.3186C20.9505 24.3194 20.8578 24.3075 20.7678 24.2837L16.2645 23.0761C16.0798 23.0213 15.8798 23.0709 15.7422 23.206C15.6048 23.341 15.5513 23.5399 15.6028 23.7257C15.6543 23.9112 15.8025 24.0545 15.99 24.0992L20.4934 25.3073C20.6731 25.3547 20.8586 25.3785 21.0449 25.3782C21.9974 25.3777 22.8322 24.7405 23.0839 23.8217C23.1134 23.7153 23.1333 23.6067 23.1439 23.497L29.6027 21.7651C29.6487 21.7534 29.6987 21.7415 29.7457 21.7338C30.2732 21.6657 30.7691 21.9992 30.9055 22.5129C30.9293 22.6024 30.9412 22.6948 30.9404 22.7874C30.9412 23.267 30.6199 23.6871 30.1568 23.8121Z" fill="black"/>
<path d="M16.9536 10.6612H22.2517C22.5442 10.6612 22.7815 10.4239 22.7815 10.1314C22.7815 9.83853 22.5442 9.60156 22.2517 9.60156H16.9536C16.661 9.60156 16.4238 9.83853 16.4238 10.1314C16.4238 10.4239 16.661 10.6612 16.9536 10.6612Z" fill="black"/>
</g>
<defs>
<clipPath id="clip0_1_1712">
<rect width="32" height="32" fill="white" transform="translate(0 0.25)"/>
</clipPath>
</defs>
</svg>
