<svg width="32" height="32" viewBox="0 0 32 32" fill="none" xmlns="http://www.w3.org/2000/svg">
<g clip-path="url(#clip0_1_1348)">
<path d="M15.9989 31.9997C24.8354 31.9997 31.9987 24.8363 31.9987 15.9999C31.9987 7.16338 24.8354 0 15.9989 0C7.16241 0 -0.000976562 7.16338 -0.000976562 15.9999C-0.000976562 24.8363 7.16241 31.9997 15.9989 31.9997Z" fill="#55ACEE"/>
<path d="M25.7991 11.4985C25.1135 11.8025 24.3759 12.0082 23.6024 12.1C24.3922 11.6268 24.9983 10.8782 25.2843 9.98459C24.5453 10.423 23.7265 10.741 22.8557 10.9124C22.1581 10.1694 21.1641 9.70508 20.0635 9.70508C17.9518 9.70508 16.2391 11.4178 16.2391 13.5295C16.2391 13.8293 16.273 14.121 16.3386 14.4011C13.1602 14.2417 10.342 12.7192 8.45564 10.4047C8.1265 10.9694 7.93769 11.6268 7.93769 12.3276C7.93769 13.6541 8.61336 14.8252 9.63898 15.5109C9.01237 15.4912 8.42227 15.3192 7.90689 15.032C7.9066 15.0483 7.9066 15.0645 7.9066 15.0805C7.9066 16.9335 9.22542 18.4791 10.9746 18.8302C10.6541 18.918 10.3155 18.9645 9.96726 18.9645C9.72027 18.9645 9.48097 18.9408 9.24767 18.8963C9.73424 20.4154 11.1463 21.5212 12.8202 21.5522C11.5111 22.5782 9.8623 23.1894 8.07003 23.1894C7.762 23.1894 7.45682 23.1714 7.1582 23.1357C8.8498 24.2213 10.8605 24.8541 13.0202 24.8541C20.0547 24.8541 23.9016 19.0267 23.9016 13.9724C23.9016 13.8067 23.8979 13.6416 23.8905 13.4779C24.6383 12.9388 25.2866 12.2654 25.7991 11.4985Z" fill="#F1F2F2"/>
</g>
<defs>
<clipPath id="clip0_1_1348">
<rect width="32" height="32" fill="white"/>
</clipPath>
</defs>
</svg>
