<svg width="32" height="33" viewBox="0 0 32 33" fill="none" xmlns="http://www.w3.org/2000/svg">
<g clip-path="url(#clip0_1_1717)">
<path d="M15.9999 14.1171C18.0586 14.1171 19.7333 12.4419 19.7333 10.3837C19.7333 8.32559 18.0586 6.65039 15.9999 6.65039C13.9413 6.65039 12.2666 8.32559 12.2666 10.3837C12.2666 12.4419 13.9413 14.1171 15.9999 14.1171ZM15.9999 7.71706C17.4703 7.71706 18.6666 8.91332 18.6666 10.3837C18.6666 11.8541 17.4703 13.0504 15.9999 13.0504C14.5295 13.0504 13.3333 11.8541 13.3333 10.3837C13.3333 8.91332 14.5295 7.71706 15.9999 7.71706Z" fill="black"/>
<path d="M15.9055 29.4537L24.0874 17.6367C27.1562 13.5455 26.7124 6.82067 23.1375 3.24627C21.2058 1.314 18.6372 0.25 15.9055 0.25C13.1738 0.25 10.6052 1.314 8.67349 3.24573C5.09855 6.82013 4.65482 13.5449 7.71135 17.6201L15.9055 29.4537ZM9.42762 3.99987C11.1583 2.26973 13.4586 1.31667 15.9055 1.31667C18.3524 1.31667 20.6527 2.26973 22.3834 3.99987C25.61 7.226 26.0074 13.2996 23.2223 17.0127L15.9055 27.5796L8.57696 16.9967C5.80362 13.2996 6.20149 7.226 9.42762 3.99987Z" fill="black"/>
<path d="M22.4624 23.1878C22.1691 23.152 21.9045 23.3622 21.8704 23.655C21.8363 23.9478 22.0453 24.2128 22.3376 24.247C27.9461 24.9072 30.9333 26.6864 30.9333 27.7174C30.9333 29.1648 25.2523 31.184 16 31.184C6.74773 31.184 1.06667 29.1648 1.06667 27.7174C1.06667 26.6864 4.05387 24.9072 9.6624 24.247C9.95467 24.2128 10.1637 23.9472 10.1296 23.655C10.0949 23.3622 9.8304 23.151 9.5376 23.1878C3.92213 23.8491 0 25.7115 0 27.7174C0 29.9702 5.496 32.2507 16 32.2507C26.504 32.2507 32 29.9702 32 27.7174C32 25.7115 28.0779 23.8491 22.4624 23.1878Z" fill="black"/>
</g>
<defs>
<clipPath id="clip0_1_1717">
<rect width="32" height="32" fill="white" transform="translate(0 0.25)"/>
</clipPath>
</defs>
</svg>
