<svg width="32" height="32" viewBox="0 0 32 32" fill="none" xmlns="http://www.w3.org/2000/svg">
<g clip-path="url(#clip0_1_1333)">
<path d="M20.768 8.51367H11.2306C9.70826 8.51367 8.46973 9.7522 8.46973 11.2745V20.812C8.46973 22.3343 9.70826 23.5732 11.2306 23.5732H20.768C22.2904 23.5732 23.5292 22.3347 23.5292 20.812V11.2745C23.5292 9.7522 22.2907 8.51367 20.768 8.51367ZM15.9993 21.0009C13.2659 21.0009 11.042 18.777 11.042 16.0433C11.042 13.3099 13.2659 11.0859 15.9993 11.0859C18.7331 11.0859 20.957 13.3099 20.957 16.0433C20.957 18.7766 18.7327 21.0009 15.9993 21.0009ZM21.1164 12.1109C20.4693 12.1109 19.9431 11.5847 19.9431 10.938C19.9431 10.2913 20.4693 9.76504 21.1164 9.76504C21.7631 9.76504 22.2893 10.2913 22.2893 10.938C22.2893 11.5847 21.7631 12.1109 21.1164 12.1109Z" fill="#6A453B"/>
<path d="M15.9995 13.1807C14.4216 13.1807 13.1367 14.4648 13.1367 16.0428C13.1367 17.6214 14.4216 18.9059 15.9995 18.9059C17.5782 18.9059 18.862 17.6214 18.862 16.0428C18.862 14.4652 17.5778 13.1807 15.9995 13.1807Z" fill="#6A453B"/>
<path d="M16 0C7.1638 0 0 7.1638 0 16C0 24.8362 7.1638 32 16 32C24.8362 32 32 24.8362 32 16C32 7.1638 24.8362 0 16 0ZM25.6245 20.8119C25.6245 23.4896 23.4465 25.6676 20.7687 25.6676H11.2313C8.55384 25.6676 6.37554 23.4896 6.37554 20.8119V11.2744C6.37554 8.59698 8.55384 6.41868 11.2313 6.41868H20.7687C23.4465 6.41868 25.6245 8.59698 25.6245 11.2744V20.8119Z" fill="#6A453B"/>
</g>
<defs>
<clipPath id="clip0_1_1333">
<rect width="32" height="32" fill="white"/>
</clipPath>
</defs>
</svg>
