<svg width="32" height="32" viewBox="0 0 32 32" fill="none" xmlns="http://www.w3.org/2000/svg">
<g clip-path="url(#clip0_1_1479)">
<path d="M23.6684 2.48229C23.4119 1.22491 22.2979 0.275391 20.9655 0.275391C20.6604 0.275391 20.4138 0.522011 20.4138 0.827115C20.4138 1.13222 20.6604 1.37884 20.9655 1.37884C21.8781 1.37884 22.6207 2.12146 22.6207 3.03401C22.6207 3.94656 21.8781 4.68918 20.9655 4.68918C20.6604 4.68918 20.4138 4.9358 20.4138 5.24091C20.4138 5.54601 20.6604 5.79263 20.9655 5.79263C22.2974 5.79263 23.4119 4.84311 23.6684 3.58574H30.8966V8.55125H1.10345V3.58574H8.82759H10.4828C10.7879 3.58574 11.0345 3.33911 11.0345 3.03401C11.0345 2.72891 10.7879 2.48229 10.4828 2.48229H9.48083C9.70924 1.84118 10.3161 1.37884 11.0345 1.37884C11.947 1.37884 12.6897 2.12146 12.6897 3.03401C12.6897 3.94656 11.947 4.68918 11.0345 4.68918C10.7294 4.68918 10.4828 4.9358 10.4828 5.24091C10.4828 5.54601 10.7294 5.79263 11.0345 5.79263C12.5556 5.79263 13.7931 4.55511 13.7931 3.03401C13.7931 1.51291 12.5556 0.275391 11.0345 0.275391C9.70262 0.275391 8.58814 1.22491 8.33159 2.48229H0V9.6547V31.7237H32V9.6547V2.48229H23.6684ZM30.8966 30.6202H1.10345V9.6547H30.8966V30.6202Z" fill="black"/>
<path d="M14.3447 1.37884C15.2572 1.37884 15.9999 2.12146 15.9999 3.03401C15.9999 3.94656 15.2572 4.68918 14.3447 4.68918C14.0396 4.68918 13.793 4.9358 13.793 5.24091C13.793 5.54601 14.0396 5.79263 14.3447 5.79263C15.8658 5.79263 17.1033 4.55511 17.1033 3.03401C17.1033 1.51291 15.8658 0.275391 14.3447 0.275391C14.0396 0.275391 13.793 0.522011 13.793 0.827115C13.793 1.13222 14.0396 1.37884 14.3447 1.37884Z" fill="black"/>
<path d="M17.6552 1.37884C18.5678 1.37884 19.3104 2.12146 19.3104 3.03401C19.3104 3.94656 18.5678 4.68918 17.6552 4.68918C17.3501 4.68918 17.1035 4.9358 17.1035 5.24091C17.1035 5.54601 17.3501 5.79263 17.6552 5.79263C19.1763 5.79263 20.4139 4.55511 20.4139 3.03401C20.4139 1.51291 19.1763 0.275391 17.6552 0.275391C17.3501 0.275391 17.1035 0.522011 17.1035 0.827115C17.1035 1.13222 17.3501 1.37884 17.6552 1.37884Z" fill="black"/>
<path d="M12.1377 14.0683C12.4424 14.0683 12.6894 13.8213 12.6894 13.5166C12.6894 13.2119 12.4424 12.9648 12.1377 12.9648C11.833 12.9648 11.5859 13.2119 11.5859 13.5166C11.5859 13.8213 11.833 14.0683 12.1377 14.0683Z" fill="black"/>
<path d="M16 14.0683C16.3047 14.0683 16.5517 13.8213 16.5517 13.5166C16.5517 13.2119 16.3047 12.9648 16 12.9648C15.6953 12.9648 15.4482 13.2119 15.4482 13.5166C15.4482 13.8213 15.6953 14.0683 16 14.0683Z" fill="black"/>
<path d="M19.8623 14.0683C20.167 14.0683 20.414 13.8213 20.414 13.5166C20.414 13.2119 20.167 12.9648 19.8623 12.9648C19.5576 12.9648 19.3105 13.2119 19.3105 13.5166C19.3105 13.8213 19.5576 14.0683 19.8623 14.0683Z" fill="black"/>
<path d="M23.7246 14.0683C24.0293 14.0683 24.2763 13.8213 24.2763 13.5166C24.2763 13.2119 24.0293 12.9648 23.7246 12.9648C23.4199 12.9648 23.1729 13.2119 23.1729 13.5166C23.1729 13.8213 23.4199 14.0683 23.7246 14.0683Z" fill="black"/>
<path d="M27.5859 14.0683C27.8906 14.0683 28.1376 13.8213 28.1376 13.5166C28.1376 13.2119 27.8906 12.9648 27.5859 12.9648C27.2812 12.9648 27.0342 13.2119 27.0342 13.5166C27.0342 13.8213 27.2812 14.0683 27.5859 14.0683Z" fill="black"/>
<path d="M4.41403 18.4824C4.71874 18.4824 4.96575 18.2353 4.96575 17.9306C4.96575 17.6259 4.71874 17.3789 4.41403 17.3789C4.10932 17.3789 3.8623 17.6259 3.8623 17.9306C3.8623 18.2353 4.10932 18.4824 4.41403 18.4824Z" fill="black"/>
<path d="M8.27633 18.4824C8.58104 18.4824 8.82806 18.2353 8.82806 17.9306C8.82806 17.6259 8.58104 17.3789 8.27633 17.3789C7.97162 17.3789 7.72461 17.6259 7.72461 17.9306C7.72461 18.2353 7.97162 18.4824 8.27633 18.4824Z" fill="black"/>
<path d="M12.1377 18.4824C12.4424 18.4824 12.6894 18.2353 12.6894 17.9306C12.6894 17.6259 12.4424 17.3789 12.1377 17.3789C11.833 17.3789 11.5859 17.6259 11.5859 17.9306C11.5859 18.2353 11.833 18.4824 12.1377 18.4824Z" fill="black"/>
<path d="M16 18.4824C16.3047 18.4824 16.5517 18.2353 16.5517 17.9306C16.5517 17.6259 16.3047 17.3789 16 17.3789C15.6953 17.3789 15.4482 17.6259 15.4482 17.9306C15.4482 18.2353 15.6953 18.4824 16 18.4824Z" fill="black"/>
<path d="M19.8623 18.4824C20.167 18.4824 20.414 18.2353 20.414 17.9306C20.414 17.6259 20.167 17.3789 19.8623 17.3789C19.5576 17.3789 19.3105 17.6259 19.3105 17.9306C19.3105 18.2353 19.5576 18.4824 19.8623 18.4824Z" fill="black"/>
<path d="M23.7246 18.4824C24.0293 18.4824 24.2763 18.2353 24.2763 17.9306C24.2763 17.6259 24.0293 17.3789 23.7246 17.3789C23.4199 17.3789 23.1729 17.6259 23.1729 17.9306C23.1729 18.2353 23.4199 18.4824 23.7246 18.4824Z" fill="black"/>
<path d="M27.5859 18.4824C27.8906 18.4824 28.1376 18.2353 28.1376 17.9306C28.1376 17.6259 27.8906 17.3789 27.5859 17.3789C27.2812 17.3789 27.0342 17.6259 27.0342 17.9306C27.0342 18.2353 27.2812 18.4824 27.5859 18.4824Z" fill="black"/>
<path d="M4.41403 22.3437C4.71874 22.3437 4.96575 22.0967 4.96575 21.792C4.96575 21.4872 4.71874 21.2402 4.41403 21.2402C4.10932 21.2402 3.8623 21.4872 3.8623 21.792C3.8623 22.0967 4.10932 22.3437 4.41403 22.3437Z" fill="black"/>
<path d="M8.27633 22.3437C8.58104 22.3437 8.82806 22.0967 8.82806 21.792C8.82806 21.4872 8.58104 21.2402 8.27633 21.2402C7.97162 21.2402 7.72461 21.4872 7.72461 21.792C7.72461 22.0967 7.97162 22.3437 8.27633 22.3437Z" fill="black"/>
<path d="M12.1377 22.3437C12.4424 22.3437 12.6894 22.0967 12.6894 21.792C12.6894 21.4872 12.4424 21.2402 12.1377 21.2402C11.833 21.2402 11.5859 21.4872 11.5859 21.792C11.5859 22.0967 11.833 22.3437 12.1377 22.3437Z" fill="black"/>
<path d="M16 22.3437C16.3047 22.3437 16.5517 22.0967 16.5517 21.792C16.5517 21.4872 16.3047 21.2402 16 21.2402C15.6953 21.2402 15.4482 21.4872 15.4482 21.792C15.4482 22.0967 15.6953 22.3437 16 22.3437Z" fill="black"/>
<path d="M19.8623 22.3437C20.167 22.3437 20.414 22.0967 20.414 21.792C20.414 21.4872 20.167 21.2402 19.8623 21.2402C19.5576 21.2402 19.3105 21.4872 19.3105 21.792C19.3105 22.0967 19.5576 22.3437 19.8623 22.3437Z" fill="black"/>
<path d="M23.7246 22.3437C24.0293 22.3437 24.2763 22.0967 24.2763 21.792C24.2763 21.4872 24.0293 21.2402 23.7246 21.2402C23.4199 21.2402 23.1729 21.4872 23.1729 21.792C23.1729 22.0967 23.4199 22.3437 23.7246 22.3437Z" fill="black"/>
<path d="M27.5859 22.3437C27.8906 22.3437 28.1376 22.0967 28.1376 21.792C28.1376 21.4872 27.8906 21.2402 27.5859 21.2402C27.2812 21.2402 27.0342 21.4872 27.0342 21.792C27.0342 22.0967 27.2812 22.3437 27.5859 22.3437Z" fill="black"/>
<path d="M4.41403 26.7577C4.71874 26.7577 4.96575 26.5107 4.96575 26.206C4.96575 25.9013 4.71874 25.6543 4.41403 25.6543C4.10932 25.6543 3.8623 25.9013 3.8623 26.206C3.8623 26.5107 4.10932 26.7577 4.41403 26.7577Z" fill="black"/>
<path d="M8.27633 26.7577C8.58104 26.7577 8.82806 26.5107 8.82806 26.206C8.82806 25.9013 8.58104 25.6543 8.27633 25.6543C7.97162 25.6543 7.72461 25.9013 7.72461 26.206C7.72461 26.5107 7.97162 26.7577 8.27633 26.7577Z" fill="black"/>
<path d="M12.1377 26.7577C12.4424 26.7577 12.6894 26.5107 12.6894 26.206C12.6894 25.9013 12.4424 25.6543 12.1377 25.6543C11.833 25.6543 11.5859 25.9013 11.5859 26.206C11.5859 26.5107 11.833 26.7577 12.1377 26.7577Z" fill="black"/>
<path d="M16 26.7577C16.3047 26.7577 16.5517 26.5107 16.5517 26.206C16.5517 25.9013 16.3047 25.6543 16 25.6543C15.6953 25.6543 15.4482 25.9013 15.4482 26.206C15.4482 26.5107 15.6953 26.7577 16 26.7577Z" fill="black"/>
<path d="M19.8623 26.7577C20.167 26.7577 20.414 26.5107 20.414 26.206C20.414 25.9013 20.167 25.6543 19.8623 25.6543C19.5576 25.6543 19.3105 25.9013 19.3105 26.206C19.3105 26.5107 19.5576 26.7577 19.8623 26.7577Z" fill="black"/>
</g>
<defs>
<clipPath id="clip0_1_1479">
<rect width="32" height="32" fill="white"/>
</clipPath>
</defs>
</svg>
