<svg width="32" height="32" viewBox="0 0 32 32" fill="none" xmlns="http://www.w3.org/2000/svg">
<g clip-path="url(#clip0_1_1511)">
<path d="M31.9925 10.7562C31.9962 10.7344 31.9984 10.713 31.9994 10.6906C32.0005 10.6645 32 10.6394 31.9978 10.6133C31.9957 10.5909 31.9925 10.5695 31.9872 10.5477C31.9813 10.5221 31.9733 10.4975 31.9637 10.473C31.9589 10.4602 31.9578 10.4468 31.9519 10.4346C31.9477 10.4255 31.9402 10.4186 31.9354 10.4095C31.9306 10.4004 31.9285 10.3908 31.9231 10.3818L26.5886 1.84643C26.564 1.80749 26.5352 1.77228 26.5027 1.74134C26.5021 1.7408 26.5016 1.7408 26.5011 1.74027C26.4552 1.69706 26.4008 1.66612 26.3426 1.64158C26.3352 1.63838 26.3304 1.63198 26.3224 1.62878C26.3165 1.62664 26.3101 1.62771 26.3042 1.62611C26.2503 1.60797 26.1949 1.5957 26.1367 1.5957H5.86532C5.80771 1.5957 5.75276 1.60797 5.69995 1.62558C5.69408 1.62718 5.68821 1.62611 5.68288 1.62824C5.67488 1.63091 5.67008 1.63731 5.66261 1.64051C5.60713 1.66345 5.55485 1.69333 5.5095 1.73387C5.50684 1.73654 5.5031 1.73814 5.50044 1.74027C5.46736 1.77121 5.43802 1.80695 5.41348 1.84589L0.0789037 10.3812C0.0735691 10.3898 0.0714353 10.3999 0.0666342 10.409C0.0618331 10.418 0.0543647 10.425 0.050097 10.434C0.044229 10.4463 0.043162 10.4596 0.0378275 10.4724C0.0282252 10.497 0.0202234 10.5215 0.0143553 10.5471C0.0095542 10.569 0.00582 10.5909 0.00368616 10.6133C-4.80409e-05 10.6394 -0.000581499 10.665 0.000485417 10.6906C0.00155233 10.713 0.00368616 10.7344 0.00742037 10.7562C0.011688 10.7818 0.018623 10.8069 0.0271583 10.832C0.0340933 10.8528 0.0415617 10.8731 0.0511639 10.8933C0.055965 10.9029 0.0575654 10.9136 0.0629 10.9232C0.0714353 10.9387 0.0842383 10.9504 0.0938405 10.9648C0.101309 10.976 0.105577 10.9883 0.114645 10.999L15.5791 30.196C15.5801 30.1976 15.5812 30.1986 15.5823 30.1997L15.5849 30.2034C15.5865 30.2056 15.5892 30.2061 15.5908 30.2082C15.6345 30.2611 15.6889 30.3011 15.7482 30.3331C15.7642 30.3416 15.7791 30.3491 15.7956 30.356C15.8602 30.3832 15.9285 30.4024 16 30.4024C16.0608 30.4024 16.1221 30.3918 16.1829 30.3699C16.192 30.3667 16.1979 30.3592 16.2069 30.3555C16.2341 30.3443 16.2555 30.3261 16.28 30.3107C16.3206 30.2851 16.3584 30.2584 16.3899 30.2237C16.3974 30.2157 16.4086 30.212 16.4155 30.2034L31.8858 10.999C31.8943 10.9883 31.8986 10.9755 31.9066 10.9648C31.9167 10.9504 31.929 10.9387 31.9375 10.9232C31.9429 10.9136 31.9445 10.9029 31.9493 10.8933C31.9589 10.8731 31.9663 10.8533 31.9733 10.832C31.9807 10.8069 31.9882 10.7824 31.9925 10.7562ZM17.1213 2.66315H25.368L22.7754 9.62211L17.1213 2.66315ZM21.8141 10.1316H10.1863L16 2.97629L21.8141 10.1316ZM9.18716 9.66852L6.6271 2.66315H14.8792L9.18716 9.66852ZM22.1881 11.1985L15.9066 28.0589L9.74569 11.1985H22.1881ZM26.2573 3.33157L30.5073 10.1321H23.7239L26.2573 3.33157ZM5.73782 3.33851L8.22 10.1316H1.49257L5.73782 3.33851ZM8.60996 11.1985L14.3921 27.023L1.6446 11.1985H8.60996ZM17.2787 27.4316L23.3265 11.1985H30.3553L17.2787 27.4316Z" fill="black"/>
</g>
<defs>
<clipPath id="clip0_1_1511">
<rect width="32" height="32" fill="white"/>
</clipPath>
</defs>
</svg>
