<svg width="48" height="48" viewBox="0 0 48 48" fill="none" xmlns="http://www.w3.org/2000/svg">
<g clip-path="url(#clip0_1_1282)">
<path d="M48.0002 23.9996C48.0002 31.9234 41.6002 38.3996 33.6002 38.3996C25.6764 38.3996 19.2002 31.9234 19.2002 23.9996C19.2002 16.0758 25.6002 9.59961 33.524 9.59961C41.6002 9.59961 48.0002 16.0758 48.0002 23.9996Z" fill="#FFB600"/>
<path d="M33.6002 9.59961C41.524 9.59961 48.0002 16.0758 48.0002 23.9996C48.0002 31.9234 41.6002 38.3996 33.6002 38.3996C25.6764 38.3996 19.2002 31.9234 19.2002 23.9996" fill="#F7981D"/>
<path d="M33.5996 9.59961C41.5234 9.59961 47.9996 16.0758 47.9996 23.9996C47.9996 31.9234 41.5996 38.3996 33.5996 38.3996" fill="#FF8500"/>
<path d="M14.2476 9.59961C6.4 9.6758 0 16.0758 0 23.9996C0 31.9234 6.4 38.3996 14.4 38.3996C18.1333 38.3996 21.4857 36.952 24.0762 34.6663C24.6095 34.2091 25.0667 33.6758 25.5238 33.1425H22.5524C22.1714 32.6853 21.7905 32.152 21.4857 31.6948H26.5905C26.8952 31.2377 27.2 30.7044 27.4286 30.171H20.6476C20.419 29.7139 20.1905 29.1806 20.0381 28.6472H27.9619C28.419 27.1996 28.7238 25.6758 28.7238 24.0758C28.7238 23.0091 28.5714 22.0187 28.419 21.0282H19.581C19.6571 20.4948 19.8095 20.0377 19.9619 19.5044H27.8857C27.7333 18.971 27.5048 18.4377 27.2762 17.9806H20.5714C20.8 17.4472 21.1048 16.9901 21.4095 16.4568H26.5143C26.2095 15.9234 25.8286 15.3901 25.3714 14.9329H22.5524C23.0095 14.3996 23.4667 13.9425 24 13.4853C21.4857 11.1234 18.0571 9.75199 14.3238 9.75199C14.3238 9.59961 14.3238 9.59961 14.2476 9.59961Z" fill="#FF5050"/>
<path d="M0 23.9996C0 31.9234 6.4 38.3996 14.4 38.3996C18.1333 38.3996 21.4857 36.9519 24.0762 34.6662C24.6095 34.2091 25.0667 33.6758 25.5238 33.1424H22.5524C22.1714 32.6853 21.7905 32.1519 21.4857 31.6948H26.5905C26.8952 31.2377 27.2 30.7043 27.4286 30.171H20.6476C20.419 29.7139 20.1905 29.1805 20.0381 28.6472H27.9619C28.419 27.1996 28.7238 25.6758 28.7238 24.0758C28.7238 23.0091 28.5714 22.0186 28.419 21.0281H19.581C19.6571 20.4948 19.8095 20.0377 19.9619 19.5043H27.8857C27.7333 18.971 27.5048 18.4377 27.2762 17.9805H20.5714C20.8 17.4472 21.1048 16.99 21.4095 16.4567H26.5143C26.2095 15.9234 25.8286 15.39 25.3714 14.9329H22.5524C23.0095 14.3996 23.4667 13.9424 24 13.4853C21.4857 11.1234 18.0571 9.75195 14.3238 9.75195H14.2476" fill="#E52836"/>
<path d="M14.3995 38.3996C18.1328 38.3996 21.4852 36.9519 24.0756 34.6662C24.609 34.2091 25.0661 33.6758 25.5233 33.1424H22.5518C22.1709 32.6853 21.7899 32.1519 21.4852 31.6948H26.5899C26.8947 31.2377 27.1995 30.7043 27.428 30.171H20.6471C20.4185 29.7139 20.1899 29.1805 20.0375 28.6472H27.9614C28.4185 27.1996 28.7233 25.6758 28.7233 24.0758C28.7233 23.0091 28.5709 22.0186 28.4185 21.0281H19.5804C19.6566 20.4948 19.809 20.0377 19.9614 19.5043H27.8852C27.7328 18.971 27.5042 18.4377 27.2756 17.9805H20.5709C20.7995 17.4472 21.1042 16.99 21.409 16.4567H26.5137C26.209 15.9234 25.828 15.39 25.3709 14.9329H22.5518C23.009 14.3996 23.4661 13.9424 23.9995 13.4853C21.4852 11.1234 18.0566 9.75195 14.3233 9.75195H14.2471" fill="#CB2026"/>
<path d="M19.5054 27.6569L19.734 26.3617C19.6578 26.3617 19.5054 26.4379 19.353 26.4379C18.8197 26.4379 18.7435 26.1331 18.8197 25.9807L19.2768 23.3141H20.1149L20.3435 21.8664H19.5816L19.734 20.9521H18.2102C18.2102 20.9521 17.2959 25.9807 17.2959 26.5902C17.2959 27.5045 17.8292 27.8855 18.5149 27.8855C18.9721 27.8855 19.353 27.7331 19.5054 27.6569Z" fill="white"/>
<path d="M20.0391 25.2195C20.0391 27.3528 21.4867 27.8861 22.7057 27.8861C23.8486 27.8861 24.3057 27.6575 24.3057 27.6575L24.6105 26.2099C24.6105 26.2099 23.7724 26.5909 23.0105 26.5909C21.3343 26.5909 21.6391 25.3718 21.6391 25.3718H24.7629C24.7629 25.3718 24.9914 24.3814 24.9914 24.0004C24.9914 23.0099 24.4581 21.7909 22.7819 21.7909C21.1819 21.6385 20.0391 23.3147 20.0391 25.2195ZM22.7057 23.0099C23.5438 23.0099 23.3914 24.0004 23.3914 24.0766H21.7153C21.7153 24.0004 21.8676 23.0099 22.7057 23.0099Z" fill="white"/>
<path d="M32.3809 27.6571L32.6857 25.9809C32.6857 25.9809 31.9238 26.3618 31.3904 26.3618C30.3238 26.3618 29.8666 25.5237 29.8666 24.6095C29.8666 22.7809 30.7809 21.7904 31.8476 21.7904C32.6095 21.7904 33.219 22.2476 33.219 22.2476L33.4476 20.6476C33.4476 20.6476 32.5333 20.2666 31.6952 20.2666C29.9428 20.2666 28.1904 21.7904 28.1904 24.6856C28.1904 26.5904 29.1047 27.8856 30.9333 27.8856C31.5428 27.8856 32.3809 27.6571 32.3809 27.6571Z" fill="white"/>
<path d="M11.1247 21.6377C10.0581 21.6377 9.29616 21.9425 9.29616 21.9425L9.06759 23.2377C9.06759 23.2377 9.7533 22.9329 10.7438 22.9329C11.2771 22.9329 11.7343 23.0091 11.7343 23.4663C11.7343 23.771 11.6581 23.8472 11.6581 23.8472C11.6581 23.8472 11.2009 23.8472 10.9723 23.8472C9.67711 23.8472 8.22949 24.3806 8.22949 26.1329C8.22949 27.5044 9.14378 27.8091 9.67711 27.8091C10.7438 27.8091 11.2009 27.1234 11.2771 27.1234L11.2009 27.7329H12.5724L13.1819 23.5425C13.1819 21.7139 11.6581 21.6377 11.1247 21.6377ZM11.4295 25.0663C11.4295 25.2948 11.2771 26.5139 10.3628 26.5139C9.90568 26.5139 9.7533 26.1329 9.7533 25.9044C9.7533 25.5234 9.98187 24.9901 11.1247 24.9901C11.3533 25.0663 11.4295 25.0663 11.4295 25.0663Z" fill="white"/>
<path d="M14.6293 27.8091C15.0103 27.8091 16.915 27.8853 16.915 25.8282C16.915 23.9234 15.0865 24.3044 15.0865 23.5425C15.0865 23.1615 15.3912 23.0091 15.9246 23.0091C16.1531 23.0091 16.9912 23.0853 16.9912 23.0853L17.2198 21.7139C17.2198 21.7139 16.6865 21.5615 15.7722 21.5615C14.6293 21.5615 13.4865 22.0187 13.4865 23.5425C13.4865 25.2949 15.3912 25.1425 15.3912 25.8282C15.3912 26.2853 14.8579 26.3615 14.477 26.3615C13.7912 26.3615 13.1055 26.133 13.1055 26.133L12.877 27.5044C12.9531 27.6568 13.3341 27.8091 14.6293 27.8091Z" fill="white"/>
<path d="M45.0294 20.4189L44.7246 22.4761C44.7246 22.4761 44.1151 21.7142 43.277 21.7142C41.9056 21.7142 40.6865 23.3904 40.6865 25.3713C40.6865 26.5904 41.296 27.8856 42.5913 27.8856C43.5056 27.8856 44.0389 27.2761 44.0389 27.2761L43.9627 27.8094H45.4865L46.6294 20.4951L45.0294 20.4189ZM44.3437 24.457C44.3437 25.2951 43.9627 26.3618 43.1246 26.3618C42.5913 26.3618 42.2865 25.9047 42.2865 25.1428C42.2865 23.9237 42.8199 23.1618 43.5056 23.1618C44.0389 23.1618 44.3437 23.5428 44.3437 24.457Z" fill="white"/>
<path d="M2.81969 27.7332L3.73397 22.2475L3.88636 27.7332H4.95302L6.93397 22.2475L6.09588 27.7332H7.69588L8.91493 20.4189H6.40064L4.87683 24.9142L4.80064 20.4189H2.59112L1.37207 27.7332H2.81969Z" fill="white"/>
<path d="M26.4369 27.7329C26.8941 25.2186 26.9703 23.1615 28.0369 23.5424C28.1893 22.5519 28.4179 22.171 28.5703 21.79C28.5703 21.79 28.4941 21.79 28.2655 21.79C27.5798 21.79 27.0465 22.7043 27.0465 22.7043L27.1988 21.8662H25.7512L24.7607 27.8091H26.4369V27.7329Z" fill="white"/>
<path d="M35.8864 21.6377C34.8198 21.6377 34.0579 21.9425 34.0579 21.9425L33.8293 23.2377C33.8293 23.2377 34.515 22.9329 35.5055 22.9329C36.0388 22.9329 36.496 23.0091 36.496 23.4663C36.496 23.771 36.4198 23.8472 36.4198 23.8472C36.4198 23.8472 35.9626 23.8472 35.7341 23.8472C34.4388 23.8472 32.9912 24.3806 32.9912 26.1329C32.9912 27.5044 33.9055 27.8091 34.4388 27.8091C35.5055 27.8091 35.9626 27.1234 36.0388 27.1234L35.9626 27.7329H37.3341L37.9436 23.5425C38.0198 21.7139 36.4198 21.6377 35.8864 21.6377ZM36.2674 25.0663C36.2674 25.2948 36.115 26.5139 35.2007 26.5139C34.7436 26.5139 34.5912 26.1329 34.5912 25.9044C34.5912 25.5234 34.8198 24.9901 35.9626 24.9901C36.1912 25.0663 36.1912 25.0663 36.2674 25.0663Z" fill="white"/>
<path d="M39.2377 27.7329C39.6949 25.2186 39.7711 23.1615 40.8377 23.5424C40.9901 22.5519 41.2187 22.171 41.3711 21.79C41.3711 21.79 41.2949 21.79 41.0663 21.79C40.3806 21.79 39.8472 22.7043 39.8472 22.7043L39.9996 21.8662H38.552L37.5615 27.8091H39.2377V27.7329Z" fill="white"/>
<path d="M17.1436 26.5902C17.1436 27.5045 17.6769 27.8855 18.3626 27.8855C18.8959 27.8855 19.3531 27.7331 19.5055 27.6569L19.734 26.3617C19.6578 26.3617 19.5055 26.4379 19.3531 26.4379C18.8197 26.4379 18.7436 26.1331 18.8197 25.9807L19.2769 23.3141H20.115L20.3436 21.8664H19.5817L19.734 20.9521" fill="#DCE5E5"/>
<path d="M20.8008 25.2195C20.8008 27.3528 21.4865 27.8861 22.7055 27.8861C23.8484 27.8861 24.3055 27.6575 24.3055 27.6575L24.6103 26.2099C24.6103 26.2099 23.7722 26.5909 23.0103 26.5909C21.3341 26.5909 21.6389 25.3718 21.6389 25.3718H24.7627C24.7627 25.3718 24.9913 24.3814 24.9913 24.0004C24.9913 23.0099 24.4579 21.7909 22.7817 21.7909C21.1817 21.6385 20.8008 23.3147 20.8008 25.2195ZM22.7055 23.0099C23.5436 23.0099 23.696 24.0004 23.696 24.0766H21.7151C21.7151 24.0004 21.8674 23.0099 22.7055 23.0099Z" fill="#DCE5E5"/>
<path d="M32.3817 27.6571L32.6865 25.9809C32.6865 25.9809 31.9246 26.3618 31.3912 26.3618C30.3246 26.3618 29.8674 25.5237 29.8674 24.6095C29.8674 22.7809 30.7817 21.7904 31.8484 21.7904C32.6103 21.7904 33.2198 22.2476 33.2198 22.2476L33.4484 20.6476C33.4484 20.6476 32.5341 20.2666 31.696 20.2666C29.9436 20.2666 28.9531 21.7904 28.9531 24.6856C28.9531 26.5904 29.1055 27.8856 30.9341 27.8856C31.5436 27.8856 32.3817 27.6571 32.3817 27.6571Z" fill="#DCE5E5"/>
<path d="M9.06759 23.3138C9.06759 23.3138 9.7533 23.0091 10.7438 23.0091C11.2771 23.0091 11.7343 23.0853 11.7343 23.5424C11.7343 23.8472 11.6581 23.9234 11.6581 23.9234C11.6581 23.9234 11.2009 23.9234 10.9723 23.9234C9.67711 23.9234 8.22949 24.4567 8.22949 26.2091C8.22949 27.5805 9.14378 27.8853 9.67711 27.8853C10.7438 27.8853 11.2009 27.1996 11.2771 27.1996L11.2009 27.8091H12.5724L13.1819 23.6186C13.1819 21.8662 11.6581 21.79 11.0485 21.79L9.06759 23.3138ZM12.1914 25.0662C12.1914 25.2948 11.2771 26.5138 10.3628 26.5138C9.90568 26.5138 9.7533 26.1329 9.7533 25.9043C9.7533 25.5234 9.98187 24.99 11.1247 24.99C11.3533 25.0662 12.1914 25.0662 12.1914 25.0662Z" fill="#DCE5E5"/>
<path d="M12.9512 27.6568C12.9512 27.6568 13.4083 27.8091 14.7036 27.8091C15.0845 27.8091 16.9893 27.8853 16.9893 25.8282C16.9893 23.9234 15.1607 24.3044 15.1607 23.5425C15.1607 23.1615 15.4655 23.0091 15.9988 23.0091C16.2274 23.0091 17.0655 23.0853 17.0655 23.0853L17.294 21.7139C17.294 21.7139 16.7607 21.5615 15.8464 21.5615C14.7036 21.5615 14.3226 22.0187 14.3226 23.5425C14.3226 25.2949 15.4655 25.1425 15.4655 25.8282C15.4655 26.2853 14.9321 26.3615 14.5512 26.3615" fill="#DCE5E5"/>
<path d="M44.7241 22.4761C44.7241 22.4761 44.1146 21.7142 43.2765 21.7142C41.9051 21.7142 41.4479 23.3904 41.4479 25.3713C41.4479 26.5903 41.2955 27.8856 42.5908 27.8856C43.5051 27.8856 44.0384 27.2761 44.0384 27.2761L43.9622 27.8094H45.486L46.6289 20.4951L44.7241 22.4761ZM44.6479 24.457C44.6479 25.2951 43.9622 26.3618 43.1241 26.3618C42.5908 26.3618 42.286 25.9046 42.286 25.1427C42.286 23.9237 42.8193 23.1618 43.5051 23.1618C44.0384 23.1618 44.6479 23.5427 44.6479 24.457Z" fill="#DCE5E5"/>
<path d="M2.81969 27.7332L3.73397 22.2475L3.88636 27.7332H4.95302L6.93397 22.2475L6.09588 27.7332H7.69588L8.91493 20.4189H7.01016L4.87683 24.9142L4.80064 20.4189H3.96255L1.37207 27.7332H2.81969Z" fill="#DCE5E5"/>
<path d="M24.8389 27.7329H26.4389C26.896 25.2186 26.9722 23.1615 28.0389 23.5424C28.1912 22.5519 28.4198 22.171 28.5722 21.79C28.5722 21.79 28.496 21.79 28.2674 21.79C27.5817 21.79 27.0484 22.7043 27.0484 22.7043L27.2008 21.8662" fill="#DCE5E5"/>
<path d="M33.8293 23.3138C33.8293 23.3138 34.515 23.0091 35.5055 23.0091C36.0388 23.0091 36.496 23.0853 36.496 23.5424C36.496 23.8472 36.4198 23.9234 36.4198 23.9234C36.4198 23.9234 35.9626 23.9234 35.7341 23.9234C34.4388 23.9234 32.9912 24.4567 32.9912 26.2091C32.9912 27.5805 33.9055 27.8853 34.4388 27.8853C35.5055 27.8853 35.9626 27.1996 36.0388 27.1996L35.9626 27.8091H37.3341L37.9436 23.6186C37.9436 21.8662 36.4198 21.79 35.8103 21.79L33.8293 23.3138ZM36.9531 25.0662C36.9531 25.2948 36.0388 26.5138 35.1245 26.5138C34.6674 26.5138 34.515 26.1329 34.515 25.9043C34.515 25.5234 34.7436 24.99 35.8865 24.99C36.1912 25.0662 36.9531 25.0662 36.9531 25.0662Z" fill="#DCE5E5"/>
<path d="M37.6387 27.7329H39.2387C39.6958 25.2186 39.772 23.1615 40.8387 23.5424C40.991 22.5519 41.2196 22.171 41.372 21.79C41.372 21.79 41.2958 21.79 41.0672 21.79C40.3815 21.79 39.8482 22.7043 39.8482 22.7043L40.0006 21.8662" fill="#DCE5E5"/>
</g>
<defs>
<clipPath id="clip0_1_1282">
<rect width="48" height="48" fill="white"/>
</clipPath>
</defs>
</svg>
