<svg width="348" height="75" viewBox="0 0 348 75" fill="none" xmlns="http://www.w3.org/2000/svg">
<rect x="300" width="1" height="75" fill="#EFEFEF"/>
<rect x="225" width="1" height="75" fill="#EFEFEF"/>
<g clip-path="url(#clip0_1_1750)">
<path d="M342.625 39.9868C342.609 39.9851 340.307 40.053 339.964 37.5859C340.345 37.3205 340.695 36.976 341.004 36.558C341.605 35.7447 341.992 34.7245 342.13 33.6209C342.177 33.578 342.217 33.5247 342.243 33.4619C342.493 32.8675 342.619 32.2329 342.619 31.5756C342.619 29.0526 340.716 27 338.376 27C337.765 27 337.171 27.1409 336.61 27.4193C336.396 27.4356 336.187 27.4732 335.986 27.5312C335.025 27.8089 334.243 28.5213 333.784 29.5373C333.339 30.5238 333.251 31.685 333.537 32.8073C333.598 33.0443 333.674 33.2773 333.766 33.4999C333.79 33.5601 333.827 33.6114 333.871 33.6537C334.095 35.3762 334.914 36.8033 336.032 37.5825C335.688 40.0538 333.387 39.9852 333.371 39.9869C331.716 40.0431 330.386 41.4065 330.386 43.0755V46.5497C330.386 46.7984 330.587 47 330.836 47H334.79H341.206H345.16C345.409 47 345.61 46.7984 345.61 46.5497V43.0755C345.61 41.4064 344.281 40.043 342.625 39.9868ZM336.236 28.3965C336.4 28.349 336.574 28.3209 336.752 28.3129C336.818 28.3099 336.882 28.2924 336.941 28.2616C337.397 28.0221 337.88 27.9007 338.376 27.9007C340.219 27.9007 341.718 29.5492 341.718 31.5756C341.718 31.6364 341.717 31.6969 341.714 31.7572C341.357 31.3942 340.86 31.1686 340.312 31.1686H337.242C337.06 31.1686 336.886 31.1113 336.741 31.0028C336.617 30.9102 336.521 30.7857 336.464 30.6428C336.375 30.4218 336.156 30.2835 335.918 30.2985C335.679 30.3137 335.478 30.4797 335.417 30.7117C335.24 31.3952 334.885 32.0247 334.398 32.5352C333.946 30.672 334.763 28.8222 336.236 28.3965ZM335.844 36.1852C335.258 35.4693 334.874 34.5026 334.753 33.4443C335.321 32.9379 335.77 32.3076 336.063 31.6086C336.107 31.6495 336.154 31.6882 336.202 31.7246C336.505 31.9501 336.864 32.0693 337.242 32.0693H340.312C340.746 32.0693 341.12 32.3298 341.287 32.7026C341.287 32.7058 341.287 32.7088 341.287 32.712C341.287 35.2541 339.812 37.3223 337.999 37.3223C337.21 37.3223 336.444 36.9185 335.844 36.1852ZM336.879 38.0247C337.236 38.1539 337.611 38.223 337.999 38.223C338.383 38.223 338.758 38.1561 339.118 38.0271C339.282 38.8861 339.76 39.6348 340.427 40.1503L338.063 43.5178C338.047 43.5398 338.026 43.5509 337.999 43.5509C337.972 43.5509 337.951 43.5397 337.935 43.5178L335.57 40.1495C336.237 39.6335 336.715 38.8843 336.879 38.0247ZM344.71 46.0993H341.206H334.79H331.286V43.0754C331.286 41.8675 332.269 40.8848 333.477 40.8848C333.493 40.8848 334.218 40.8672 334.791 40.607L337.198 44.0354C337.381 44.296 337.68 44.4516 337.999 44.4516C337.999 44.4516 337.999 44.4516 337.999 44.4516C338.317 44.4516 338.617 44.296 338.8 44.0354L341.207 40.6075C341.86 40.8848 342.503 40.8848 342.519 40.8848C343.727 40.8848 344.71 41.8675 344.71 43.0754V46.0993Z" fill="black"/>
</g>
<path d="M272.825 45.98L267.964 41.1197C269.268 39.6208 270.057 37.6652 270.057 35.5277C270.057 30.8226 266.23 27 261.53 27C256.825 27 253.002 30.8271 253.002 35.5277C253.002 40.2284 256.829 44.0554 261.53 44.0554C263.667 44.0554 265.623 43.2661 267.122 41.9623L271.982 46.8226C272.097 46.9379 272.253 47 272.403 47C272.554 47 272.709 46.9424 272.825 46.8226C273.055 46.592 273.055 46.2106 272.825 45.98ZM254.195 35.5277C254.195 31.4834 257.485 28.1973 261.525 28.1973C265.57 28.1973 268.856 31.4878 268.856 35.5277C268.856 39.5676 265.57 42.8625 261.525 42.8625C257.485 42.8625 254.195 39.5721 254.195 35.5277Z" fill="black"/>
<defs>
<clipPath id="clip0_1_1750">
<rect width="20" height="20" fill="white" transform="translate(328 27)"/>
</clipPath>
</defs>
</svg>
