<svg width="24" height="24" viewBox="0 0 24 24" fill="none" xmlns="http://www.w3.org/2000/svg">
<g clip-path="url(#clip0_1_1678)">
<path d="M4.84864 23.434C4.75971 23.434 4.67078 23.4065 4.59604 23.352C4.46372 23.2557 4.39756 23.0929 4.42549 22.9318L5.75336 15.1914L0.12957 9.71027C0.0127211 9.596 -0.0293789 9.42545 0.0208834 9.27036C0.0715752 9.11485 0.206037 9.00144 0.367994 8.97781L8.13931 7.84842L11.6151 0.806118C11.6873 0.659198 11.8368 0.566406 12 0.566406C12.1637 0.566406 12.3132 0.659198 12.385 0.806118L15.8604 7.84842L23.6321 8.97781C23.7941 9.00144 23.9281 9.11442 23.9792 9.27036C24.0295 9.42545 23.9878 9.59643 23.8705 9.71027L18.2467 15.1923L19.5742 22.9322C19.6017 23.0933 19.5355 23.2562 19.4036 23.3524C19.2713 23.4495 19.0956 23.4619 18.9508 23.385L12 19.7309L5.0484 23.385C4.98567 23.4177 4.91694 23.434 4.84864 23.434ZM1.35262 9.70253L6.51459 14.7343C6.61555 14.8327 6.66194 14.9753 6.63788 15.1145L5.41913 22.2191L11.8003 18.8649C11.9253 18.7987 12.0744 18.7987 12.2002 18.8649L18.5805 22.2191L17.3622 15.1145C17.3382 14.9753 17.3846 14.8331 17.4855 14.7343L22.6475 9.70253L15.5141 8.66593C15.3741 8.64574 15.2533 8.55767 15.1906 8.43094L12 1.96731L8.80947 8.43137C8.74675 8.5581 8.62604 8.64617 8.48599 8.66636L1.35262 9.70253Z" fill="black"/>
</g>
<defs>
<clipPath id="clip0_1_1678">
<rect width="24" height="24" fill="white"/>
</clipPath>
</defs>
</svg>
