<svg width="20" height="20" viewBox="0 0 20 20" fill="none" xmlns="http://www.w3.org/2000/svg">
<g clip-path="url(#clip0_1_1777)">
<path d="M4.04053 19.527C3.96642 19.527 3.89232 19.5041 3.83003 19.4587C3.71977 19.3785 3.66464 19.2428 3.68791 19.1085L4.79446 12.6582L0.107975 8.09059C0.0106009 7.99536 -0.0244824 7.85324 0.0174028 7.724C0.059646 7.59441 0.171698 7.4999 0.306661 7.48021L6.78276 6.53905L9.67928 0.670463C9.73942 0.54803 9.864 0.470703 10 0.470703C10.1364 0.470703 10.261 0.54803 10.3208 0.670463L13.217 6.53905L19.6934 7.48021C19.8284 7.4999 19.9401 7.59405 19.9827 7.724C20.0246 7.85324 19.9898 7.99572 19.8921 8.09059L15.2056 12.6589L16.3118 19.1089C16.3347 19.2431 16.2796 19.3788 16.1697 19.459C16.0594 19.5399 15.913 19.5503 15.7924 19.4862L10 16.4411L4.207 19.4862C4.15473 19.5134 4.09745 19.527 4.04053 19.527ZM1.12718 8.08414L5.42883 12.2773C5.51296 12.3593 5.55162 12.4782 5.53157 12.5941L4.51594 18.5146L9.83357 15.7194C9.93775 15.6643 10.062 15.6643 10.1669 15.7194L15.4838 18.5146L14.4685 12.5941C14.4485 12.4782 14.4871 12.3597 14.5713 12.2773L18.8729 8.08414L12.9284 7.22031C12.8117 7.20348 12.7111 7.13009 12.6589 7.02448L10 1.63812L7.34123 7.02484C7.28896 7.13045 7.18836 7.20384 7.07166 7.22066L1.12718 8.08414Z" fill="black"/>
</g>
<defs>
<clipPath id="clip0_1_1777">
<rect width="20" height="20" fill="white"/>
</clipPath>
</defs>
</svg>
