<svg width="32" height="32" viewBox="0 0 32 32" fill="none" xmlns="http://www.w3.org/2000/svg">
<g clip-path="url(#clip0_1_1466)">
<path d="M27.6011 11.6538C21.1746 5.22736 10.7189 5.22736 4.29243 11.6538L0 15.9457L4.39892 20.3447C7.61189 23.5576 11.8324 25.1647 16.0535 25.1647C20.2746 25.1647 24.4946 23.5582 27.7081 20.3447L32.0005 16.0522L27.6011 11.6538ZM26.9432 19.5803C20.9384 25.5847 11.1681 25.5847 5.16324 19.5803L1.52865 15.9457L5.05676 12.4176C11.0616 6.41331 20.8319 6.41331 26.8368 12.4176L30.4714 16.0522L26.9432 19.5803Z" fill="black"/>
<path d="M15.4439 11.6582C13.3575 11.6582 11.6602 13.3555 11.6602 15.442C11.6602 15.7404 11.9023 15.9825 12.2007 15.9825C12.4991 15.9825 12.7412 15.7404 12.7412 15.442C12.7412 13.9517 13.9537 12.7393 15.4439 12.7393C15.7423 12.7393 15.9845 12.4971 15.9845 12.1987C15.9845 11.9004 15.7429 11.6582 15.4439 11.6582Z" fill="black"/>
<path d="M15.985 8.95508C12.1104 8.95508 8.95801 12.1075 8.95801 15.9821C8.95801 19.8567 12.1104 23.0091 15.985 23.0091C19.8596 23.0091 23.0121 19.8567 23.0121 15.9821C23.0121 12.1075 19.8602 8.95508 15.985 8.95508ZM15.985 21.9281C12.7067 21.9281 10.0391 19.2605 10.0391 15.9821C10.0391 12.7037 12.7067 10.0362 15.985 10.0362C19.2634 10.0362 21.931 12.7037 21.931 15.9821C21.931 19.2605 19.264 21.9281 15.985 21.9281Z" fill="black"/>
</g>
<defs>
<clipPath id="clip0_1_1466">
<rect width="32" height="32" fill="white"/>
</clipPath>
</defs>
</svg>
