<svg width="48" height="48" viewBox="0 0 48 48" fill="none" xmlns="http://www.w3.org/2000/svg">
<g clip-path="url(#clip0_1_1311)">
<path d="M17.5996 30.8949L20.0377 17.1807H23.8472L21.4853 30.8949H17.5996Z" fill="#3C58BF"/>
<path d="M17.5996 30.8949L20.7234 17.1807H23.8472L21.4853 30.8949H17.5996Z" fill="#293688"/>
<path d="M35.2763 17.3332C34.5144 17.0284 33.2953 16.7236 31.7715 16.7236C27.962 16.7236 25.2191 18.6284 25.2191 21.3713C25.2191 23.4284 27.1239 24.4951 28.6477 25.1808C30.1715 25.8665 30.6287 26.3236 30.6287 26.9332C30.6287 27.8474 29.4096 28.3046 28.343 28.3046C26.8191 28.3046 25.981 28.076 24.6858 27.5427L24.1525 27.3141L23.6191 30.4379C24.5334 30.8189 26.2096 31.1998 27.962 31.1998C32.0001 31.1998 34.6668 29.2951 34.6668 26.3998C34.6668 24.7998 33.6763 23.5808 31.3906 22.5903C30.0191 21.9046 29.181 21.5236 29.181 20.8379C29.181 20.2284 29.8668 19.6189 31.3906 19.6189C32.6858 19.6189 33.6001 19.8474 34.2858 20.1522L34.6668 20.3046L35.2763 17.3332Z" fill="#3C58BF"/>
<path d="M35.2763 17.3332C34.5144 17.0284 33.2953 16.7236 31.7715 16.7236C27.962 16.7236 25.9049 18.6284 25.9049 21.3713C25.9049 23.4284 27.1239 24.4951 28.6477 25.1808C30.1715 25.8665 30.6287 26.3236 30.6287 26.9332C30.6287 27.8474 29.4096 28.3046 28.343 28.3046C26.8191 28.3046 25.981 28.076 24.6858 27.5427L24.1525 27.3141L23.6191 30.4379C24.5334 30.8189 26.2096 31.1998 27.962 31.1998C32.0001 31.1998 34.6668 29.2951 34.6668 26.3998C34.6668 24.7998 33.6763 23.5808 31.3906 22.5903C30.0191 21.9046 29.181 21.5236 29.181 20.8379C29.181 20.2284 29.8668 19.6189 31.3906 19.6189C32.6858 19.6189 33.6001 19.8474 34.2858 20.1522L34.6668 20.3046L35.2763 17.3332Z" fill="#293688"/>
<path d="M41.83 17.1807C40.9157 17.1807 40.23 17.2569 39.8491 18.1711L34.1348 30.8949H38.2491L39.011 28.6092H43.8871L44.3443 30.8949H48.0014L44.8014 17.1807H41.83ZM40.0776 26.3235C40.3062 25.6378 41.6014 22.2854 41.6014 22.2854C41.6014 22.2854 41.9062 21.4473 42.1348 20.914L42.3633 22.2092C42.3633 22.2092 43.1252 25.6378 43.2776 26.3997H40.0776V26.3235Z" fill="#3C58BF"/>
<path d="M42.7443 17.1807C41.83 17.1807 41.1443 17.2569 40.7633 18.1711L34.1348 30.8949H38.2491L39.011 28.6092H43.8871L44.3443 30.8949H48.0014L44.8014 17.1807H42.7443ZM40.0776 26.3235C40.3824 25.5616 41.6014 22.2854 41.6014 22.2854C41.6014 22.2854 41.9062 21.4473 42.1348 20.914L42.3633 22.2092C42.3633 22.2092 43.1252 25.6378 43.2776 26.3997H40.0776V26.3235Z" fill="#293688"/>
<path d="M10.5912 26.7806L10.2103 24.7997C9.52457 22.514 7.31505 19.9997 4.87695 18.7806L8.30552 30.9711H12.4198L18.5912 17.2568H14.477L10.5912 26.7806Z" fill="#3C58BF"/>
<path d="M10.5912 26.7806L10.2103 24.7997C9.52457 22.514 7.31505 19.9997 4.87695 18.7806L8.30552 30.9711H12.4198L18.5912 17.2568H15.2389L10.5912 26.7806Z" fill="#293688"/>
<path d="M0 17.1807L0.685714 17.333C5.5619 18.4759 8.91428 21.3711 10.2095 24.7997L8.83809 18.3235C8.60952 17.4092 7.92381 17.1807 7.08571 17.1807H0Z" fill="#FFBC00"/>
<path d="M0 17.1807C4.87619 18.3235 8.91428 21.295 10.2095 24.7235L8.91428 19.314C8.68571 18.3997 7.92381 17.8664 7.08571 17.8664L0 17.1807Z" fill="#F7981D"/>
<path d="M0 17.1807C4.87619 18.3235 8.91428 21.295 10.2095 24.7235L9.29524 21.7521C9.06667 20.8378 8.7619 19.9235 7.69524 19.5426L0 17.1807Z" fill="#ED7C00"/>
<path d="M14.3998 26.3241L11.8093 23.7337L10.5902 26.6289L10.2855 24.7241C9.59977 22.4384 7.39024 19.9241 4.95215 18.7051L8.38072 30.8956H12.495L14.3998 26.3241Z" fill="#051244"/>
<path d="M21.4863 30.8953L18.2101 27.543L17.6006 30.8953H21.4863Z" fill="#051244"/>
<path d="M30.2477 26.1719C30.5525 26.4766 30.7049 26.7052 30.6287 27.01C30.6287 27.9243 29.4096 28.3814 28.3429 28.3814C26.8191 28.3814 25.981 28.1528 24.6858 27.6195L24.1525 27.3909L23.6191 30.5147C24.5334 30.8957 26.2096 31.2766 27.962 31.2766C30.4001 31.2766 32.381 30.5909 33.5239 29.3719L30.2477 26.1719Z" fill="#051244"/>
<path d="M34.666 30.896H38.247L39.0089 28.6103H43.8851L44.3422 30.896H47.9994L46.7041 25.3341L42.1327 20.915L42.3613 22.1341C42.3613 22.1341 43.1232 25.5627 43.2755 26.3246H40.0755C40.3803 25.5627 41.5993 22.2865 41.5993 22.2865C41.5993 22.2865 41.9041 21.4484 42.1327 20.915" fill="#051244"/>
</g>
<defs>
<clipPath id="clip0_1_1311">
<rect width="48" height="48" fill="white"/>
</clipPath>
</defs>
</svg>
